<svg xmlns="http://www.w3.org/2000/svg" fill="none" viewBox="0 0 102 36" class="cursor-pointer h-[34px] w-[94px] ">
    <path fill="#FF393F"
          d="M95.16 29.72v.034c0 1.684-1.185 3.118-2.968 3.118-1.77 0-2.986-1.467-2.986-3.151v-.033c0-1.685 1.183-3.12 2.95-3.12a3.035 3.035 0 0 1 3.003 3.153ZM98.92 3.636C98.025 2.727 93.72.19 92.06.206c-1.66.018-3.829 1.383-5.191 1.971-1.362.589-1.556.582-1.556.582-.69.172-.424.254-.98.773-.552.518-1.023.72-2.379 1.138-1.357.418-2.46.576-2.787.857-.327.282-.134.386-.29.674-.157.287-.225.138-.407.474-.182.336.027 1.367-.117 1.997-.144.629-.352.305-.447.911-.092.607.617 1.29.71 2.123.094.833-.095 1.363-.103 2.314-.008.951.707 3.587.451 5.408-.257 1.821-1.879.717-2.552.4-.671-.314-1.97.115-1.97.115l.09.676s.225-.162 1.179-.228c.954-.066 1.935 1.16 3.316.795.984-.26 1.671-1.82 1.712-2.99.032-.957.166-3.484.171-3.63.005-.147.274-.163.274-.163s.198.642.373.501c.177-.14.428-1.107.556-1.274.127-.166 1.146-.693 1.7-1.187.552-.494.616-.906.91-.92.293-.015 1.386.803 1.774.914.386.111.56.018.653.168.092.15 1.946 6.63 1.966 6.752.02.122.644 1.17.827 1.517.161.305-.668 2.638-.767 3.488a5.987 5.987 0 0 0-3.29 5.359v.033c0 3.351 2.668 6.038 6.27 6.038 3.604 0 6.306-2.72 6.306-6.071v-.033a5.924 5.924 0 0 0-2.838-5.092c.371-.207.16-.433-.366-.768-.524-.335-.34-2.883-.05-3.507.289-.625 1.956-5.864 2.453-6.139.497-.276.657-.661 1.455-1.17.797-.51 1.291-1.371 1.333-1.175.041.196-.357 2.598-.248 3.7.11 1.101 1.229 4.043 1.229 4.043s-.606-2.973-.736-4.173c-.131-1.2.431-2.645 1.181-5.303.748-2.658-2.058-5.56-2.954-6.469"></path>
    <path fill="#fff"
          d="m8.365 18.2-1.3-3.318L5.748 18.2h2.617ZM5.53 11.047h3.117l4.973 11.759h-3.47L9.3 20.719H4.796l-.833 2.085H.56l4.972-11.758ZM15.087 11.13h3.02L22.91 17.3V11.13h3.203v11.674h-2.836l-4.988-6.405v6.405h-3.202V11.13ZM31.833 11.13H28.58v11.674h3.254V11.13ZM34.301 11.13h3.42l2.786 4.518 2.786-4.518h3.42v11.674h-3.22v-6.705l-2.986 4.57h-.067l-2.969-4.537v6.672h-3.17V11.13ZM55.986 18.2l-1.3-3.318-1.32 3.319h2.62Zm-2.836-7.154h3.12l4.97 11.759h-3.47l-.85-2.086h-4.505l-.832 2.085H48.18l4.97-11.758ZM62.706 11.13h3.236v8.839h5.654v2.835h-8.89V11.13ZM19.782 29.688c1.15 0 1.85-.601 1.85-1.519v-.033c0-1.001-.7-1.534-1.867-1.534h-1.518v3.085h1.535Zm-4.77-5.805h5.003c2.953 0 4.854 1.518 4.854 4.104v.032c0 2.752-2.12 4.204-5.021 4.204h-1.601v3.335h-3.235V23.883ZM35.444 29.754v-.033a3.036 3.036 0 0 0-3.004-3.153c-1.768 0-2.951 1.435-2.951 3.12v.033c0 1.684 1.218 3.151 2.986 3.151 1.785 0 2.97-1.434 2.97-3.118Zm-9.274 0v-.033c0-3.353 2.702-6.072 6.305-6.072 3.601 0 6.272 2.686 6.272 6.039v.033c0 3.352-2.703 6.072-6.307 6.072-3.603 0-6.27-2.687-6.27-6.04M40.25 23.883h3.236v8.84h5.655v2.835h-8.892V23.883ZM54.18 23.883h-3.255V35.56h3.255V23.883ZM59.5 26.719h-3.502v-2.837h10.24v2.837h-3.503v8.84H59.5v-8.84ZM71.308 23.883h-3.254V35.56h3.254V23.883ZM73.376 29.754v-.033a5.998 5.998 0 0 1 6.154-6.072c2.385 0 3.92 1.002 4.954 2.435l-2.436 1.885c-.665-.834-1.434-1.368-2.552-1.368-1.633 0-2.784 1.386-2.784 3.087v.033c0 1.75 1.151 3.119 2.784 3.119 1.218 0 1.937-.568 2.635-1.417l2.437 1.733a6.145 6.145 0 0 1-11.192-3.402"></path>
</svg>